<?xml version="1.0" encoding="UTF-8" standalone="no"?>
<svg xmlns:ffdec="https://www.free-decompiler.com/flash" xmlns:xlink="http://www.w3.org/1999/xlink" ffdec:objectType="shape" height="75.1px" width="66.6px" xmlns="http://www.w3.org/2000/svg">
  <g transform="matrix(1.0, 0.0, 0.0, 1.0, 33.4, 37.85)">
    <path d="M2.7 -8.15 L0.95 -6.4 -2.75 -15.2 -1.6 -15.1 -0.4 -15.2 2.7 -8.15 M2.05 -24.35 Q2.9 -22.7 2.45 -21.0 2.05 -19.5 0.95 -18.95 -1.0 -17.85 -2.8 -18.45 -4.1 -18.8 -4.8 -20.1 -5.85 -22.2 -5.0 -24.25 -4.35 -25.8 -3.05 -26.2 L-1.6 -26.4 Q-0.4 -26.4 0.55 -25.85 1.55 -25.3 2.05 -24.35 M-7.7 -34.65 L-9.4 -36.3 Q-5.2 -37.65 -1.4 -37.8 6.35 -38.05 12.55 -35.9 17.95 -34.1 23.55 -29.9 27.85 -26.65 30.95 -19.3 32.5 -15.65 33.2 -12.55 L33.15 -11.35 32.7 -10.5 32.6 -11.5 Q32.35 -13.15 31.7 -14.9 L29.25 -20.5 Q27.55 -24.0 24.25 -27.0 21.5 -29.5 18.6 -30.9 L17.95 -31.25 Q14.75 -32.8 11.95 -33.45 7.05 -34.65 0.25 -34.25 -3.2 -34.0 -6.5 -33.0 L-7.7 -34.65 M22.8 -3.05 L21.0 -1.4 Q20.7 -4.05 19.4 -6.55 17.8 -9.55 14.7 -11.3 11.6 -13.05 7.8 -13.05 L4.25 -12.6 2.7 -16.25 Q4.75 -17.5 5.5 -20.15 6.25 -22.95 4.85 -25.65 3.65 -27.9 1.2 -28.85 L-3.9 -29.05 -4.55 -30.15 0.45 -31.0 11.05 -30.35 Q13.6 -29.75 16.55 -28.3 L17.2 -27.95 Q19.5 -26.85 21.75 -24.85 24.8 -22.2 26.3 -19.05 L28.7 -13.7 29.35 -11.0 29.6 -8.3 28.4 -8.4 26.1 -6.0 22.8 -3.05 M11.3 -1.8 Q10.9 -2.6 10.15 -3.1 L8.35 -3.55 7.15 -3.35 Q6.05 -3.0 5.5 -1.75 4.85 -0.15 5.7 1.55 6.35 2.65 7.35 3.0 L8.3 3.1 Q9.45 3.1 10.35 2.6 11.25 2.1 11.6 0.85 12.0 -0.5 11.3 -1.8 M9.95 1.9 Q8.75 2.55 7.6 2.2 6.9 2.0 6.45 1.15 5.75 -0.1 6.25 -1.4 6.65 -2.35 7.4 -2.6 L8.35 -2.7 Q9.95 -2.7 10.6 -1.45 11.1 -0.45 10.85 0.6 10.6 1.5 9.95 1.9 M-7.8 -25.35 L-8.1 -24.45 -10.2 -28.1 -7.8 -29.15 -6.6 -27.25 -7.8 -25.35 M-27.15 18.1 L-28.55 19.35 Q-30.45 16.15 -31.65 12.05 -33.5 5.75 -33.4 -1.4 -33.3 -8.35 -31.0 -14.55 -29.4 -18.8 -27.0 -22.15 L-25.05 -21.8 -17.4 -23.45 -17.1 -23.8 -14.5 -25.65 -10.95 -27.75 -8.75 -24.1 -8.3 -23.4 Q-8.7 -21.0 -7.4 -18.55 -6.15 -16.2 -3.8 -15.4 -1.95 -11.8 0.45 -5.5 L-0.15 -4.4 Q-1.4 -1.35 -0.6 2.1 -8.95 10.1 -11.75 12.4 -15.0 15.1 -23.3 20.7 L-24.35 18.85 -27.15 18.1 M-25.1 -25.1 L-26.15 -25.3 -26.2 -26.0 -22.5 -29.15 Q-17.75 -32.8 -12.85 -35.0 L-12.95 -34.65 -12.05 -34.2 -10.25 -32.6 -9.7 -31.9 Q-12.85 -30.65 -15.75 -28.8 L-18.9 -26.45 -25.1 -25.1 M29.35 -3.1 Q29.6 -2.0 31.45 -0.45 32.35 0.4 33.2 0.9 L33.0 1.55 31.55 3.5 Q16.7 14.3 7.35 19.6 -1.5 24.6 -15.6 29.95 L-15.9 29.45 -16.5 29.05 -4.45 23.0 -2.75 22.3 -3.75 20.65 Q-4.35 19.7 -4.35 18.45 -4.35 16.75 -3.25 15.6 -2.15 14.4 -0.6 14.4 0.55 14.4 1.5 15.05 2.5 15.7 2.9 16.8 L3.6 18.4 5.3 17.55 12.15 13.3 20.2 7.75 21.95 5.8 21.85 5.15 21.95 2.8 Q22.15 2.1 22.65 1.45 L25.35 -0.9 28.45 -3.75 29.25 -4.6 29.35 -3.1 M13.8 -3.3 Q15.1 -0.8 14.35 1.8 13.7 4.15 12.05 5.05 10.85 5.7 9.45 5.95 L6.3 5.8 Q4.3 5.2 3.3 3.2 1.55 -0.1 2.9 -3.15 3.8 -5.5 5.9 -6.15 L8.15 -6.5 Q9.95 -6.5 11.5 -5.65 13.05 -4.8 13.8 -3.3 M5.7 -9.45 L4.65 -11.9 7.8 -12.25 Q11.35 -12.25 14.3 -10.6 17.2 -8.95 18.65 -6.15 20.05 -3.6 20.25 -0.75 L19.65 0.0 Q19.1 0.95 18.8 1.95 18.55 2.95 18.6 4.7 L17.9 5.45 11.5 9.8 11.2 8.9 13.6 7.9 Q16.55 6.35 17.55 2.75 18.65 -1.1 16.7 -4.85 15.2 -7.7 12.15 -8.95 9.05 -10.25 5.7 -9.45 M0.75 20.4 Q-0.15 20.9 -1.0 20.65 L-1.85 19.9 Q-2.35 18.9 -1.95 18.0 -1.7 17.35 -1.15 17.15 L-0.45 17.05 Q0.7 17.05 1.2 17.95 1.6 18.7 1.4 19.5 L0.75 20.4 M-1.4 16.35 Q-2.35 16.7 -2.7 17.65 -3.25 18.9 -2.6 20.25 L-1.25 21.4 -0.45 21.55 Q0.3 21.55 1.15 21.1 1.9 20.7 2.2 19.7 2.5 18.6 1.9 17.6 1.5 16.75 0.5 16.4 L-1.4 16.35 M-0.6 11.15 Q-3.45 11.15 -5.55 13.25 -7.15 14.95 -7.5 17.1 L-18.95 21.75 Q-12.7 17.4 -9.7 14.95 -6.45 12.3 0.75 5.3 2.45 8.0 5.35 8.95 L7.95 9.3 8.65 11.6 4.95 13.9 Q4.0 12.6 2.5 11.85 1.05 11.15 -0.6 11.15 M-20.95 24.85 L-21.6 23.7 -7.6 18.0 -7.65 18.45 Q-7.65 19.65 -7.25 20.75 L-20.4 27.3 -21.2 25.95 -20.95 24.85 M-23.2 31.85 L-25.95 26.15 -27.65 26.0 -28.35 25.1 -28.05 23.3 -26.4 21.8 -24.4 25.35 -24.65 26.55 -21.35 31.95 -19.55 31.0 -18.4 31.75 -18.05 32.35 -18.5 32.35 -19.05 33.2 -21.15 32.85 -21.5 32.4 -23.2 31.85 M-27.85 26.75 L-26.55 26.85 -23.75 32.5 -22.3 33.0 -24.2 33.85 -25.2 33.45 -26.95 30.35 -28.15 30.15 -28.6 29.45 -28.2 27.05 -27.85 26.75 M29.8 13.85 L31.6 15.8 Q32.8 17.45 32.85 18.15 32.65 18.9 32.1 19.3 24.7 21.1 21.15 23.1 18.0 24.9 13.65 28.15 14.35 25.45 15.25 24.55 17.15 22.6 28.45 14.1 L29.55 13.85 29.8 13.85 M12.9 22.25 Q10.85 24.4 9.95 29.7 L-1.05 36.75 -5.2 37.25 Q-5.0 35.35 -5.6 33.9 -6.2 32.3 -9.25 31.3 1.65 26.95 9.1 22.75 15.85 18.9 25.6 12.1 L25.6 12.15 Q14.4 20.75 12.9 22.25" fill="#ffffff" fill-rule="evenodd" stroke="none"/>
  </g>
</svg>
