<?xml version="1.0" encoding="UTF-8" standalone="no"?>
<svg xmlns:ffdec="https://www.free-decompiler.com/flash" xmlns:xlink="http://www.w3.org/1999/xlink" ffdec:objectType="shape" height="62.95px" width="47.65px" xmlns="http://www.w3.org/2000/svg">
  <g transform="matrix(1.0, 0.0, 0.0, 1.0, 23.55, 31.05)">
    <path d="M-7.35 -29.55 Q-6.6 -29.55 -6.15 -29.05 -5.65 -28.65 -5.65 -27.95 L-5.65 -7.8 Q-5.65 -5.5 -7.3 -3.95 -8.85 -2.4 -11.05 -2.4 L-11.85 -2.05 -12.15 -1.2 -10.7 28.8 Q-10.65 30.0 -11.4 30.85 -12.25 31.7 -13.45 31.7 L-15.85 31.7 Q-17.05 31.7 -17.85 30.85 -18.6 30.0 -18.6 28.8 L-17.15 -1.2 Q-17.05 -1.7 -17.4 -2.05 -17.75 -2.4 -18.15 -2.4 -20.4 -2.4 -22.05 -3.95 -23.55 -5.5 -23.55 -7.8 L-23.55 -27.95 Q-23.55 -28.65 -23.05 -29.05 -22.65 -29.55 -21.95 -29.55 L-21.6 -29.55 Q-20.9 -29.55 -20.4 -29.05 -19.9 -28.65 -19.9 -27.95 L-19.9 -15.95 -19.65 -15.15 -18.85 -14.9 -17.75 -14.9 -17.05 -15.15 Q-16.7 -15.5 -16.7 -15.95 L-16.7 -27.95 Q-16.7 -28.65 -16.2 -29.05 -15.75 -29.55 -15.1 -29.55 L-14.25 -29.55 Q-13.55 -29.55 -13.05 -29.05 -12.6 -28.65 -12.6 -27.95 L-12.6 -15.95 Q-12.6 -15.5 -12.25 -15.15 L-11.5 -14.9 -10.45 -14.9 Q-9.95 -14.9 -9.7 -15.15 -9.35 -15.5 -9.35 -15.95 L-9.35 -27.95 Q-9.35 -28.65 -8.9 -29.05 -8.4 -29.55 -7.7 -29.55 L-7.35 -29.55 M24.1 -14.75 Q24.1 -9.5 22.05 -5.25 20.05 -1.1 16.8 0.6 L16.8 28.65 Q16.8 30.0 15.85 30.95 14.9 31.9 13.55 31.9 L12.95 31.9 Q11.55 31.9 10.65 30.95 9.6 30.0 9.6 28.65 L9.6 0.6 Q6.45 -1.1 4.45 -5.25 2.4 -9.5 2.4 -14.75 2.4 -21.5 5.55 -26.25 8.75 -31.05 13.2 -31.05 17.75 -31.05 20.9 -26.25 24.1 -21.5 24.1 -14.75" fill="#ffffff" fill-rule="evenodd" stroke="none"/>
  </g>
</svg>
