<?xml version="1.0" encoding="UTF-8" standalone="no"?>
<svg xmlns:ffdec="https://www.free-decompiler.com/flash" xmlns:xlink="http://www.w3.org/1999/xlink" ffdec:objectType="shape" height="45.0px" width="77.85px" xmlns="http://www.w3.org/2000/svg">
  <g transform="matrix(1.0, 0.0, 0.0, 1.0, 38.9, 22.5)">
    <path d="M22.2 -20.45 Q21.55 -21.6 20.2 -21.6 L19.45 -21.6 19.45 -22.5 20.2 -22.5 Q22.05 -22.5 22.9 -20.85 L22.2 -20.45 M25.2 -13.65 L24.5 -14.15 Q24.7 -14.45 24.7 -14.9 L24.7 -15.45 23.95 -17.1 24.65 -17.5 25.6 -15.7 25.6 -14.9 Q25.6 -14.25 25.2 -13.65 M24.5 10.6 Q23.85 10.6 23.3 10.05 22.75 9.5 22.75 8.85 L22.75 0.65 Q22.75 0.0 23.3 -0.6 23.85 -1.1 24.5 -1.1 L31.7 -1.1 Q32.8 -1.1 33.25 -0.05 L36.8 6.65 Q37.5 8.0 36.7 9.35 L36.3 9.9 Q35.6 10.6 34.45 10.6 L24.5 10.6 M18.25 -9.7 Q18.25 -10.4 18.75 -10.9 19.2 -11.4 19.9 -11.4 L27.35 -11.4 30.65 -5.1 Q31.1 -4.25 30.65 -3.45 30.0 -2.6 29.15 -2.6 L19.9 -2.6 Q19.2 -2.6 18.75 -3.15 18.25 -3.55 18.25 -4.3 L18.25 -9.7 M15.65 -21.6 L11.95 -21.6 11.95 -22.5 15.65 -22.5 15.65 -21.6 M14.0 -12.75 L11.0 -12.75 10.2 -12.95 10.5 -13.75 Q10.75 -13.55 11.0 -13.55 L14.0 -13.55 14.0 -12.75 M15.1 -11.4 Q15.8 -11.4 16.25 -10.9 16.85 -10.4 16.85 -9.7 L16.85 -4.3 Q16.85 -3.55 16.25 -3.15 15.8 -2.6 15.1 -2.6 L2.6 -2.6 Q1.9 -2.6 1.45 -3.15 0.85 -3.55 0.85 -4.3 L0.85 -9.7 Q0.85 -10.4 1.45 -10.9 1.9 -11.4 2.6 -11.4 L15.1 -11.4 M21.4 -12.75 L17.65 -12.75 17.65 -13.55 21.4 -13.55 21.4 -12.75 M8.3 -18.3 L7.45 -18.3 7.45 -20.35 7.1 -21.15 7.85 -21.7 Q8.3 -21.15 8.3 -20.35 L8.3 -18.3 M9.7 -16.65 L8.8 -16.65 8.8 -20.75 9.7 -20.75 9.7 -16.65 M0.95 -21.6 L0.95 -22.5 4.3 -22.5 4.3 -21.6 0.95 -21.6 M6.15 -12.75 L5.55 -12.75 5.55 -13.55 6.15 -13.55 Q6.65 -13.55 7.05 -13.95 7.45 -14.35 7.45 -14.9 L8.3 -14.9 Q8.3 -14.05 7.65 -13.35 7.05 -12.75 6.15 -12.75 M2.2 -12.75 L-1.1 -12.75 -1.1 -13.55 2.2 -13.55 2.2 -12.75 M12.95 10.6 Q12.25 10.6 11.75 10.05 11.3 9.5 11.3 8.85 L11.3 0.65 Q11.3 0.0 11.75 -0.6 12.25 -1.1 12.95 -1.1 L19.45 -1.1 Q20.2 -1.1 20.6 -0.6 21.2 0.0 21.2 0.65 L21.2 8.85 Q21.2 9.5 20.6 10.05 20.2 10.6 19.45 10.6 L12.95 10.6 M36.4 22.5 L-36.4 22.5 Q-37.45 22.5 -38.15 21.7 -38.9 21.0 -38.9 19.85 L-38.9 17.4 Q-38.9 16.3 -38.15 15.5 -37.45 14.85 -36.4 14.85 L36.4 14.85 Q37.5 14.85 38.15 15.5 38.95 16.3 38.95 17.4 L38.95 19.85 Q38.95 21.0 38.15 21.7 37.5 22.5 36.4 22.5 M-2.35 -21.6 L-5.75 -21.6 -5.75 -22.5 -2.35 -22.5 -2.35 -21.6 M-7.6 -16.95 L-8.45 -16.95 -8.45 -20.45 -7.6 -20.35 -7.6 -16.95 M-4.45 -12.75 L-6.3 -12.75 Q-7.2 -12.75 -7.95 -13.45 L-7.25 -14.05 Q-6.95 -13.55 -6.3 -13.55 L-4.45 -13.55 -4.45 -12.75 M-23.6 -13.15 Q-24.3 -13.15 -24.8 -13.65 -25.35 -14.15 -25.35 -14.9 L-25.35 -15.2 -22.5 -20.65 Q-21.7 -22.1 -20.15 -22.1 L-11.05 -22.1 Q-10.35 -22.0 -9.95 -21.55 -9.45 -21.05 -9.45 -20.35 L-9.45 -14.9 Q-9.45 -14.15 -9.95 -13.65 -10.4 -13.15 -11.15 -13.15 L-23.6 -13.15 M-2.2 -11.4 Q-1.5 -11.4 -1.0 -10.9 -0.55 -10.4 -0.55 -9.7 L-0.55 -4.3 Q-0.55 -3.55 -1.0 -3.15 -1.5 -2.6 -2.2 -2.6 L-14.65 -2.6 Q-15.4 -2.6 -15.85 -3.15 -16.4 -3.55 -16.4 -4.3 L-16.4 -9.7 Q-16.4 -10.4 -15.85 -10.9 -15.4 -11.4 -14.65 -11.4 L-2.2 -11.4 M-12.9 10.6 L-19.35 10.6 Q-20.05 10.6 -20.65 10.05 -21.15 9.5 -21.15 8.85 L-21.15 0.65 Q-21.15 0.0 -20.65 -0.6 -20.05 -1.1 -19.35 -1.1 L-12.9 -1.1 Q-12.2 -1.1 -11.7 -0.6 -11.2 0.0 -11.2 0.65 L-11.2 8.85 Q-11.2 9.5 -11.7 10.05 -12.2 10.6 -12.9 10.6 M-17.85 -4.3 Q-17.85 -3.55 -18.3 -3.15 -18.8 -2.6 -19.6 -2.6 L-29.05 -2.6 Q-30.0 -2.6 -30.55 -3.45 -31.05 -4.25 -30.55 -5.1 L-27.3 -11.4 -19.6 -11.4 Q-18.8 -11.4 -18.3 -10.9 -17.85 -10.4 -17.85 -9.7 L-17.85 -4.3 M-24.4 10.6 L-34.3 10.6 Q-35.85 10.6 -36.55 9.35 -37.35 8.0 -36.65 6.65 L-33.15 -0.05 Q-32.6 -1.1 -31.55 -1.1 L-24.4 -1.1 Q-23.7 -1.1 -23.2 -0.6 -22.6 0.0 -22.6 0.65 L-22.6 8.85 Q-22.6 9.5 -23.2 10.05 -23.7 10.6 -24.4 10.6" fill="#ffffff" fill-rule="evenodd" stroke="none"/>
  </g>
</svg>
