<?xml version="1.0" encoding="UTF-8" standalone="no"?>
<svg xmlns:ffdec="https://www.free-decompiler.com/flash" xmlns:xlink="http://www.w3.org/1999/xlink" ffdec:objectType="shape" height="66.35px" width="60.15px" xmlns="http://www.w3.org/2000/svg">
  <g transform="matrix(1.0, 0.0, 0.0, 1.0, 30.0, 33.15)">
    <path d="M-26.55 16.35 L-15.5 24.15 Q-18.7 28.25 -22.3 30.15 -26.15 32.0 -28.3 30.45 -30.45 29.0 -29.9 24.8 -29.4 20.6 -26.55 16.35 M-1.45 18.8 Q-0.7 18.8 -0.15 20.55 0.45 22.6 0.45 25.6 0.45 28.6 -0.15 30.55 -0.7 32.35 -1.45 32.35 L-1.45 32.45 -10.05 32.45 Q-12.6 32.45 -14.65 30.55 -12.6 28.75 -10.95 26.35 -8.5 22.85 -7.55 18.75 L-1.45 18.75 -1.45 18.8 M9.45 18.75 Q12.25 18.75 14.25 20.8 16.3 22.75 16.3 25.6 16.3 28.4 14.25 30.4 12.25 32.45 9.45 32.45 L0.7 32.45 1.3 31.05 Q1.95 28.95 1.95 25.6 1.95 20.95 0.7 18.75 L9.45 18.75 M21.25 21.8 Q21.5 22.35 21.15 22.85 20.85 23.25 20.25 23.25 L17.4 23.25 Q16.65 20.7 14.5 19.05 12.25 17.25 9.45 17.25 L-4.65 17.25 2.4 2.6 Q2.85 1.6 3.95 1.6 L10.45 1.6 Q11.55 1.6 12.1 2.6 L21.25 21.8 M-12.15 25.4 Q-15.25 29.85 -19.2 32.0 -23.05 34.05 -25.35 32.6 -22.55 32.35 -19.45 30.15 -16.35 28.0 -13.9 24.4 -11.3 20.7 -10.2 16.95 -9.25 13.25 -10.05 10.6 L-9.95 10.6 Q-8.3 12.4 -8.75 16.6 -9.15 21.2 -12.15 25.4 M-14.65 22.85 L-25.7 15.15 Q-22.55 10.95 -18.85 9.05 -16.8 8.1 -15.15 8.1 -13.9 8.1 -12.95 8.7 -10.7 10.25 -11.3 14.45 -11.85 18.55 -14.65 22.85 M29.65 23.0 Q30.75 25.35 29.4 27.45 28.1 29.7 25.55 29.7 L16.65 29.7 Q17.4 28.25 17.65 26.7 L25.55 26.7 Q26.4 26.7 26.85 25.85 27.35 25.15 26.9 24.4 L12.95 -4.75 Q11.3 -8.25 11.3 -12.05 L11.3 -25.25 3.1 -25.25 3.1 -12.05 Q3.1 -8.25 1.45 -4.75 L-7.3 13.35 Q-7.65 10.95 -8.85 9.65 L-1.3 -6.05 Q0.1 -8.95 0.1 -12.05 L0.1 -25.6 Q-0.85 -26.1 -1.55 -27.05 -2.15 -28.0 -2.15 -29.2 -2.15 -30.8 -0.95 -32.0 0.15 -33.15 1.9 -33.15 L12.7 -33.15 Q14.4 -33.15 15.7 -32.0 16.8 -30.8 16.8 -29.2 16.8 -28.0 16.1 -26.95 15.35 -25.95 14.3 -25.5 L14.3 -12.05 Q14.3 -8.95 15.75 -6.05 L29.65 23.0 M12.7 -28.15 L13.45 -28.4 Q13.8 -28.75 13.8 -29.2 L13.45 -29.85 12.7 -30.15 1.9 -30.15 1.1 -29.85 0.85 -29.2 Q0.85 -28.75 1.1 -28.4 1.45 -28.15 1.9 -28.15 L12.7 -28.15" fill="#ffffff" fill-rule="evenodd" stroke="none"/>
  </g>
</svg>
