<?xml version="1.0" encoding="UTF-8" standalone="no"?>
<svg xmlns:ffdec="https://www.free-decompiler.com/flash" xmlns:xlink="http://www.w3.org/1999/xlink" ffdec:objectType="shape" height="65.3px" width="65.3px" xmlns="http://www.w3.org/2000/svg">
  <g transform="matrix(1.0, 0.0, 0.0, 1.0, 32.65, 32.65)">
    <path d="M-13.8 -11.0 L-13.55 -10.15 Q-13.3 -9.8 -12.85 -9.8 L-12.7 -9.7 Q-12.25 -9.7 -11.95 -9.95 L-11.6 -10.65 -10.75 -16.4 Q-10.65 -16.8 -10.9 -17.25 -11.15 -17.6 -11.65 -17.65 L-12.45 -17.4 -12.85 -16.75 -13.8 -11.0 M-21.85 -8.65 Q-21.95 -8.25 -21.7 -7.8 -21.45 -7.45 -20.95 -7.4 L-20.85 -7.4 Q-20.35 -7.4 -20.05 -7.65 -19.75 -7.9 -19.75 -8.35 L-18.8 -14.05 Q-18.7 -14.6 -18.95 -14.95 -19.2 -15.25 -19.75 -15.25 L-20.6 -15.2 -21.0 -14.4 -21.85 -8.65 M-17.85 -10.2 Q-17.95 -9.8 -17.65 -9.35 -17.4 -8.95 -16.9 -8.95 L-16.75 -8.95 Q-15.8 -8.95 -15.6 -9.8 L-14.75 -15.55 Q-14.65 -16.05 -14.95 -16.4 -15.2 -16.75 -15.7 -16.8 L-16.55 -16.65 -17.0 -15.85 -17.85 -10.2 M-26.0 -7.45 L-25.8 -6.6 Q-25.45 -6.25 -24.95 -6.2 L-24.85 -6.2 Q-24.35 -6.2 -24.1 -6.45 -23.75 -6.7 -23.75 -7.15 L-22.8 -12.8 Q-22.75 -13.2 -23.05 -13.65 -23.35 -14.05 -23.75 -14.05 L-24.7 -13.9 -25.05 -13.15 -26.0 -7.45 M-23.6 26.05 L-21.6 6.6 Q-21.35 4.1 -22.8 2.15 -24.25 0.15 -26.65 -0.25 L-29.6 -0.85 -29.65 -1.2 32.65 -20.35 32.55 -19.05 13.25 -10.55 Q12.0 -9.95 11.4 -8.6 10.8 -7.3 11.2 -5.95 L11.8 -3.7 Q12.25 -2.35 11.65 -1.05 11.05 0.25 9.75 0.85 L-0.35 5.3 Q-2.4 6.35 -3.55 8.2 -4.75 10.2 -4.45 12.4 L-3.25 26.15 -2.15 26.65 -2.0 27.4 -2.35 28.0 -17.35 32.65 -17.75 32.05 -18.45 32.2 -23.6 26.05 M-4.8 -0.95 L-4.15 1.6 Q-3.7 2.75 -2.65 3.35 L-0.55 3.5 8.65 0.65 Q10.0 0.35 10.8 -1.15 11.45 -2.4 11.05 -3.85 L10.35 -6.1 Q10.0 -7.3 8.9 -7.9 L6.6 -8.05 1.25 -6.45 Q2.45 -2.25 3.15 -1.3 L4.55 0.15 5.05 1.0 Q4.85 1.55 3.85 1.55 2.4 1.55 0.6 0.35 -1.8 -1.4 -3.85 -4.45 -4.65 -3.8 -4.9 -2.85 -5.15 -1.9 -4.8 -0.95 M-29.95 -3.25 L-29.6 -6.7 Q-29.5 -7.2 -29.75 -7.65 L-30.45 -8.35 -32.65 -9.2 -32.35 -10.75 -30.2 -10.75 Q-29.0 -10.75 -28.75 -11.75 L-27.8 -14.4 24.0 -30.25 24.85 -32.0 27.35 -32.65 27.75 -31.4 28.2 -31.45 28.85 -31.4 29.4 -30.85 32.05 -22.2 -29.95 -3.25" fill="#ffffff" fill-rule="evenodd" stroke="none"/>
  </g>
</svg>
