<?xml version="1.0" encoding="UTF-8" standalone="no"?>
<svg xmlns:ffdec="https://www.free-decompiler.com/flash" xmlns:xlink="http://www.w3.org/1999/xlink" ffdec:objectType="shape" height="44.05px" width="52.6px" xmlns="http://www.w3.org/2000/svg">
  <g transform="matrix(1.0, 0.0, 0.0, 1.0, -13.7, -18.0)">
    <path d="M41.0 52.5 Q41.0 52.95 41.35 53.15 L51.65 59.35 51.65 47.45 51.4 47.15 48.0 45.05 47.75 45.0 47.5 45.1 41.3 48.8 Q41.0 49.0 41.0 49.35 L41.0 52.5 M28.35 47.7 L28.35 59.35 38.85 53.05 39.0 52.65 39.0 49.25 38.8 48.8 33.25 45.1 33.05 45.05 32.9 45.1 28.65 47.2 Q28.35 47.3 28.35 47.7 M27.05 41.0 Q26.35 40.5 26.35 39.7 L26.35 33.3 16.65 39.15 27.25 45.55 27.5 45.55 31.2 43.7 27.05 41.0 M26.35 47.5 L26.05 47.1 15.9 41.05 15.7 40.9 15.7 51.85 16.0 52.3 26.35 59.25 26.35 47.5 M49.7 43.8 L52.35 45.4 Q52.65 45.6 53.05 45.4 L63.4 39.15 53.65 33.3 53.65 40.55 Q53.65 41.45 52.95 41.8 L49.7 43.8 M41.0 35.0 L41.0 46.65 42.0 46.05 51.5 40.35 51.65 40.0 51.65 28.25 41.2 34.5 41.0 35.0 M39.0 34.9 L38.7 34.45 28.35 28.25 28.35 39.2 Q28.35 39.45 28.65 39.65 L39.0 46.55 39.0 34.9 M50.75 26.5 L50.7 26.45 40.3 20.2 39.7 20.25 29.3 26.5 29.4 26.55 39.75 32.8 40.35 32.75 50.45 26.65 50.75 26.5 M66.3 53.35 Q66.3 54.0 65.6 54.5 L53.3 61.85 52.7 62.05 52.05 61.85 40.45 54.85 39.6 54.9 28.0 61.85 Q27.35 62.3 26.7 61.85 L14.45 53.7 Q13.7 53.1 13.7 52.25 L13.7 39.3 Q13.7 38.55 14.25 38.25 L25.3 31.65 26.3 30.95 26.4 29.8 26.4 26.55 Q26.4 25.95 26.95 25.6 L39.15 18.25 Q40.0 17.75 40.9 18.25 L53.0 25.55 Q53.65 25.85 53.65 26.65 L53.65 30.65 Q53.65 31.05 54.0 31.2 L65.75 38.25 Q66.3 38.6 66.3 39.2 L66.3 53.35 M53.65 47.6 L53.65 59.35 64.1 53.05 64.3 52.6 64.3 40.9 53.85 47.2 53.65 47.6" fill="000" fill-rule="evenodd" stroke="none"/>
  </g>
</svg>
