<?xml version="1.0" encoding="UTF-8" standalone="no"?>
<svg xmlns:ffdec="https://www.free-decompiler.com/flash" xmlns:xlink="http://www.w3.org/1999/xlink" ffdec:objectType="shape" height="18.2px" width="17.3px" xmlns="http://www.w3.org/2000/svg">
  <g transform="matrix(1.0, 0.0, 0.0, 1.0, 16.25, 8.5)">
    <path d="M-4.45 -0.95 Q-4.45 1.2 -5.95 2.7 -7.45 4.2 -9.6 4.2 -11.75 4.2 -13.25 2.7 -14.75 1.2 -14.75 -0.95 -14.75 -3.1 -13.25 -4.6 -11.75 -6.1 -9.6 -6.1 -7.45 -6.1 -5.95 -4.6 -4.45 -3.1 -4.45 -0.95" fill="none" stroke="#000000" stroke-linecap="round" stroke-linejoin="round" stroke-width="3.0"/>
    <path d="M-5.35 3.3 L-0.45 8.2" fill="none" stroke="#000000" stroke-linecap="butt" stroke-linejoin="round" stroke-width="3.0"/>
    <path d="M-4.45 -1.85 Q-4.45 0.3 -5.95 1.8 -7.45 3.3 -9.6 3.3 -11.75 3.3 -13.25 1.8 -14.75 0.3 -14.75 -1.85 -14.75 -4.0 -13.25 -5.5 -11.75 -7.0 -9.6 -7.0 -7.45 -7.0 -5.95 -5.5 -4.45 -4.0 -4.45 -1.85 Z" fill="none" stroke="#73ccdf" stroke-linecap="round" stroke-linejoin="round" stroke-width="3.0"/>
    <path d="M-5.45 2.3 L-0.75 7.0" fill="none" stroke="#73ccdf" stroke-linecap="butt" stroke-linejoin="round" stroke-width="3.0"/>
  </g>
</svg>
