<?xml version="1.0" encoding="UTF-8" standalone="no"?>
<svg xmlns:xlink="http://www.w3.org/1999/xlink" height="64.0px" width="64.0px" xmlns="http://www.w3.org/2000/svg">
  <g transform="matrix(1.0, 0.0, 0.0, 1.0, 32.0, 32.0)">
    <path d="M0.0 -29.8 L-29.8 0.0 -14.25 15.55 -6.35 15.55 -6.35 16.0 Q-6.35 18.65 -4.5 20.5 -2.65 22.35 0.0 22.35 2.65 22.35 4.5 20.5 6.35 18.65 6.35 16.0 L6.35 15.55 14.25 15.55 29.8 0.0 0.0 -29.8 M0.0 -32.0 L32.0 0.0 0.0 32.0 -32.0 0.0 0.0 -32.0" fill="#b7b7b7" fill-rule="evenodd" stroke="none"/>
    <path d="M3.15 15.95 Q3.15 17.2 2.2 18.15 L1.9 18.45 Q1.1 19.05 0.0 19.05 -1.3 19.05 -2.2 18.15 -3.15 17.2 -3.15 15.95 -3.15 14.6 -2.2 13.65 -1.3 12.8 0.0 12.8 1.3 12.8 2.2 13.65 L3.0 14.85 3.15 15.95" fill="#b7b7b7" fill-rule="evenodd" stroke="none"/>
    <path d="M-8.55 13.7 L-15.4 13.7 -15.4 1.95 -10.05 -1.5 -6.15 1.0 -6.15 -6.05 -0.75 -9.5 4.65 -6.05 4.65 1.95 10.05 -1.5 15.4 1.95 15.4 13.7 13.9 13.7 13.9 2.8 11.55 1.3 11.55 13.7 6.05 13.7 Q5.55 12.5 4.65 11.55 3.95 10.85 3.15 10.4 L3.15 -5.25 0.75 -6.75 0.75 9.65 0.0 9.6 -0.75 9.65 Q-3.05 9.95 -4.7 11.65 L-5.05 12.0 -5.55 12.7 -5.8 13.2 -5.9 13.35 -6.05 13.7 -6.15 13.7 -6.15 2.8 -8.55 1.3 -8.55 13.7" fill="#b7b7b7" fill-rule="evenodd" stroke="none"/>
  </g>
</svg>
