<?xml version="1.0" encoding="UTF-8" standalone="no"?>
<svg xmlns:xlink="http://www.w3.org/1999/xlink" height="64.0px" width="64.0px" xmlns="http://www.w3.org/2000/svg">
  <g transform="matrix(1.0, 0.0, 0.0, 1.0, 32.0, 32.0)">
    <path d="M0.0 -32.0 L32.0 0.0 0.0 32.0 -32.0 0.0 0.0 -32.0 M0.0 -29.8 L-29.8 0.0 -14.25 15.55 -6.35 15.55 -6.35 16.0 Q-6.35 18.65 -4.5 20.5 -2.65 22.35 0.0 22.35 2.65 22.35 4.5 20.5 6.35 18.65 6.35 16.0 L6.35 15.55 14.25 15.55 29.8 0.0 0.0 -29.8" fill="#b7b7b7" fill-rule="evenodd" stroke="none"/>
    <path d="M3.15 15.95 Q3.15 17.2 2.2 18.15 L1.9 18.45 Q1.1 19.05 0.0 19.05 -1.3 19.05 -2.2 18.15 -3.15 17.2 -3.15 15.95 -3.15 14.6 -2.2 13.65 -1.3 12.8 0.0 12.8 1.3 12.8 2.2 13.65 L3.0 14.85 3.15 15.95" fill="#b7b7b7" fill-rule="evenodd" stroke="none"/>
    <path d="M4.9 0.2 L4.9 1.65 3.35 0.2 4.9 0.2 M6.55 5.4 L9.6 5.4 9.6 9.5 6.55 9.5 6.55 5.4 M11.3 5.4 L14.3 5.4 14.3 9.5 11.3 9.5 11.3 5.4 M6.55 3.7 L6.55 0.2 13.9 0.2 Q14.3 1.8 14.3 3.6 L14.3 3.7 6.55 3.7 M-14.3 5.4 L-11.35 5.4 -11.35 9.5 -14.3 9.5 -14.3 5.4 M-6.55 3.7 L-14.3 3.7 -14.3 3.6 Q-14.3 1.8 -13.9 0.2 L-6.55 0.2 -6.55 3.7 M-9.65 5.4 L-6.55 5.4 -6.55 9.5 -9.65 9.5 -9.65 5.4 M-3.35 0.2 Q-4.3 0.8 -4.85 1.65 L-4.85 0.2 -3.35 0.2 M0.0 2.15 Q-1.2 2.15 -2.05 3.0 -2.9 3.85 -2.9 5.05 L-2.9 7.55 2.95 7.55 2.95 5.05 Q2.95 3.85 2.05 3.0 1.2 2.15 0.0 2.15 M0.0 0.2 Q2.05 0.2 3.45 1.6 4.9 3.0 4.9 5.05 L4.9 9.5 -4.85 9.5 -4.85 5.05 Q-4.85 3.05 -3.45 1.6 -2.0 0.2 0.0 0.2 M-9.85 -6.8 Q-8.4 -8.15 -6.55 -9.1 L-6.55 -6.8 -9.85 -6.8 M-6.55 -1.5 L-13.35 -1.5 Q-12.6 -3.5 -11.4 -5.1 L-6.55 -5.1 -6.55 -1.5 M4.9 -5.1 L4.9 -1.5 -4.85 -1.5 -4.85 -5.1 4.9 -5.1 M6.55 -5.1 L11.4 -5.1 Q12.65 -3.4 13.35 -1.5 L6.55 -1.5 6.55 -5.1 M6.55 -6.8 L6.55 -9.1 Q8.45 -8.15 9.85 -6.8 L6.55 -6.8 M-4.85 -6.8 L-4.85 -9.85 Q-3.0 -10.55 -1.0 -10.7 L-1.0 -19.9 6.85 -19.9 6.85 -14.1 1.0 -14.1 1.0 -10.7 Q3.0 -10.55 4.9 -9.85 L4.9 -6.8 -4.85 -6.8 M4.85 -16.05 L4.85 -17.95 1.0 -17.95 1.0 -16.05 4.85 -16.05" fill="#b7b7b7" fill-rule="evenodd" stroke="none"/>
  </g>
</svg>
