<?xml version="1.0" encoding="UTF-8" standalone="no"?>
<svg xmlns:xlink="http://www.w3.org/1999/xlink" height="64.0px" width="64.0px" xmlns="http://www.w3.org/2000/svg">
  <g transform="matrix(1.0, 0.0, 0.0, 1.0, 32.0, 32.0)">
    <path d="M0.0 -32.0 L32.0 0.0 0.0 32.0 -32.0 0.0 0.0 -32.0 M0.0 -29.8 L-29.8 0.0 -14.35 15.45 -6.3 15.45 -6.3 15.9 Q-6.3 18.55 -4.45 20.4 -2.6 22.25 0.05 22.25 2.7 22.25 4.55 20.4 6.4 18.55 6.4 15.9 L6.4 15.45 14.35 15.45 29.8 0.0 0.0 -29.8" fill="#b7b7b7" fill-rule="evenodd" stroke="none"/>
    <path d="M3.2 15.85 Q3.2 17.1 2.25 18.05 L1.95 18.35 Q1.15 18.95 0.05 18.95 -1.25 18.95 -2.15 18.05 -3.1 17.1 -3.1 15.85 -3.1 14.5 -2.15 13.55 -1.25 12.7 0.05 12.7 1.35 12.7 2.25 13.55 L3.05 14.75 3.2 15.85" fill="#b7b7b7" fill-rule="evenodd" stroke="none"/>
    <path d="M15.35 10.45 L18.8 12.9 16.05 15.75 6.4 15.75 Q6.4 13.15 4.55 11.3 2.7 9.45 0.05 9.45 -2.55 9.45 -4.4 11.3 -6.25 13.15 -6.25 15.75 L-16.05 15.75 -18.85 13.05 -15.25 10.45 -12.5 10.45 -9.25 7.55 9.45 7.55 12.6 10.45 15.35 10.45" fill="#b7b7b7" fill-rule="evenodd" stroke="none"/>
    <path d="M-9.25 7.55 L-9.25 6.2 -5.85 1.7 -5.85 -13.25 -4.85 -13.25 -4.85 7.55 -9.25 7.55" fill="#b7b7b7" fill-rule="evenodd" stroke="none"/>
    <path d="M9.45 7.55 L4.1 7.55 4.1 -17.65 6.05 -17.65 6.05 1.7 9.45 6.2 9.45 7.55" fill="#b7b7b7" fill-rule="evenodd" stroke="none"/>
    <path d="M2.25 7.55 L0.55 7.55 0.55 -15.05 2.25 -15.05 2.25 7.55" fill="#b7b7b7" fill-rule="evenodd" stroke="none"/>
    <path d="M-1.35 7.55 L-3.05 7.55 -3.05 -13.25 -1.35 -13.25 -1.35 7.55" fill="#b7b7b7" fill-rule="evenodd" stroke="none"/>
  </g>
</svg>
