<?xml version="1.0" encoding="UTF-8" standalone="no"?>
<svg xmlns:xlink="http://www.w3.org/1999/xlink" height="53.5px" width="53.5px" xmlns="http://www.w3.org/2000/svg">
  <g transform="matrix(1.0, 0.0, 0.0, 1.0, 26.75, 26.75)">
    <path d="M17.45 -4.1 L18.65 -2.75 17.45 -1.55 16.15 -2.75 17.45 -4.1 M9.0 -5.35 L11.5 -2.75 9.0 -0.25 6.5 -2.75 9.0 -5.35 M0.6 -5.35 L3.1 -2.75 0.6 -0.25 -1.9 -2.75 0.6 -5.35 M0.6 -12.05 L3.1 -9.55 0.6 -7.0 -1.9 -9.55 0.6 -12.05 M9.0 -10.8 L10.25 -9.55 9.0 -8.3 7.75 -9.55 9.0 -10.8 M0.6 -18.8 L3.1 -16.25 0.6 -13.75 -1.9 -16.25 0.6 -18.8 M-7.85 -5.35 L-5.35 -2.75 -7.85 -0.25 -10.4 -2.75 -7.85 -5.35 M-7.85 -10.8 L-6.6 -9.55 -7.85 -8.3 -9.1 -9.55 -7.85 -10.8 M-16.25 -4.1 L-15.05 -2.75 -16.25 -1.55 -17.6 -2.75 -16.25 -4.1" fill="#ffffff" fill-rule="evenodd" stroke="none"/>
    <path d="M25.25 0.0 Q25.25 10.45 17.8 17.8 L15.55 19.8 Q8.9 25.25 0.0 25.25 -8.95 25.25 -15.65 19.8 L-17.95 17.8 Q-25.25 10.45 -25.25 0.0 -25.25 -10.5 -17.95 -17.95 -10.5 -25.25 0.0 -25.25 10.45 -25.25 17.8 -17.95 25.25 -10.5 25.25 0.0 M-21.55 12.5 L-20.75 11.95 Q-11.7 5.1 0.0 5.1 11.5 5.1 20.35 11.8" fill="none" stroke="#ffffff" stroke-linecap="round" stroke-linejoin="round" stroke-width="3.0"/>
    <path d="M-15.65 19.8 Q-9.05 14.1 0.0 14.1 9.0 14.1 15.55 19.8" fill="none" stroke="#ffffff" stroke-linecap="round" stroke-linejoin="round" stroke-width="2.0"/>
  </g>
</svg>
