<?xml version="1.0" encoding="UTF-8" standalone="no"?>
<svg xmlns:xlink="http://www.w3.org/1999/xlink" height="64.0px" width="64.0px" xmlns="http://www.w3.org/2000/svg">
  <g transform="matrix(1.0, 0.0, 0.0, 1.0, 32.0, 32.0)">
    <path d="M0.0 -32.0 L32.0 0.0 0.0 32.0 -32.0 0.0 0.0 -32.0 M0.0 -29.8 L-29.8 0.0 -14.25 15.55 -6.35 15.55 -6.35 16.0 Q-6.35 18.65 -4.5 20.5 -2.65 22.35 0.0 22.35 2.65 22.35 4.5 20.5 6.35 18.65 6.35 16.0 L6.35 15.55 14.25 15.55 29.8 0.0 0.0 -29.8" fill="#b7b7b7" fill-rule="evenodd" stroke="none"/>
    <path d="M3.15 15.95 Q3.15 17.2 2.2 18.15 L1.9 18.45 Q1.1 19.05 0.0 19.05 -1.3 19.05 -2.2 18.15 -3.15 17.2 -3.15 15.95 -3.15 14.6 -2.2 13.65 -1.3 12.8 0.0 12.8 1.3 12.8 2.2 13.65 L3.0 14.85 3.15 15.95" fill="#b7b7b7" fill-rule="evenodd" stroke="none"/>
    <path d="M5.9 3.7 Q5.9 5.05 4.05 5.15 L-4.45 5.15 Q-5.85 5.15 -5.95 3.7 L-5.95 -3.75 Q-5.95 -4.9 -4.0 -4.95 L4.05 -4.95 Q5.8 -4.95 5.9 -3.85 L5.9 3.7 M-10.2 5.15 L-20.35 5.15 -20.35 3.05 -11.0 3.05 -11.0 1.2 -18.4 1.2 Q-20.35 1.1 -20.35 -0.1 L-20.35 -3.75 Q-20.35 -4.9 -18.4 -4.95 L-8.55 -4.95 -8.55 -2.8 -17.9 -2.8 -17.9 -0.95 -10.2 -0.95 Q-8.65 -0.95 -8.55 0.15 L-8.55 3.9 Q-8.65 5.15 -10.2 5.15 M18.95 5.15 L8.8 5.15 8.8 3.05 18.1 3.05 18.1 1.2 10.7 1.2 Q8.8 1.1 8.8 -0.1 L8.8 -3.75 Q8.8 -4.9 10.7 -4.95 L20.6 -4.95 20.6 -2.8 11.25 -2.8 11.25 -0.95 18.95 -0.95 Q20.5 -0.95 20.6 0.15 L20.6 3.9 Q20.5 5.15 18.95 5.15 M3.4 3.0 L3.4 -2.8 -3.5 -2.8 -3.5 3.0 3.4 3.0" fill="#b7b7b7" fill-rule="evenodd" stroke="none"/>
  </g>
</svg>
