<?xml version="1.0" encoding="UTF-8" standalone="no"?>
<svg xmlns:xlink="http://www.w3.org/1999/xlink" height="64.0px" width="64.0px" xmlns="http://www.w3.org/2000/svg">
  <g transform="matrix(1.0, 0.0, 0.0, 1.0, 32.0, 32.0)">
    <path d="M0.0 -29.8 L-29.8 0.0 -14.25 15.55 -6.35 15.55 -6.35 16.0 Q-6.35 18.65 -4.5 20.5 -2.65 22.35 0.0 22.35 2.65 22.35 4.5 20.5 6.35 18.65 6.35 16.0 L6.35 15.55 14.25 15.55 29.8 0.0 0.0 -29.8 M0.0 -32.0 L32.0 0.0 0.0 32.0 -32.0 0.0 0.0 -32.0" fill="#b7b7b7" fill-rule="evenodd" stroke="none"/>
    <path d="M3.15 15.95 Q3.15 17.2 2.2 18.15 L1.9 18.45 Q1.1 19.05 0.0 19.05 -1.3 19.05 -2.2 18.15 -3.15 17.2 -3.15 15.95 -3.15 14.6 -2.2 13.65 -1.3 12.8 0.0 12.8 1.3 12.8 2.2 13.65 L3.0 14.85 3.15 15.95" fill="#b7b7b7" fill-rule="evenodd" stroke="none"/>
    <path d="M-17.6 -2.3 Q-10.3 -9.6 0.0 -9.6 10.35 -9.6 17.7 -2.3 21.6 1.65 23.4 6.45 L22.05 7.85 Q20.35 2.95 16.45 -1.05 9.65 -7.85 0.0 -7.85 -9.6 -7.85 -16.35 -1.05 -20.3 2.95 -22.0 7.8 L-23.35 6.45 Q-21.55 1.65 -17.6 -2.3 M-11.1 4.65 Q-15.15 8.75 -15.65 14.15 L-17.2 12.6 Q-16.3 7.45 -12.35 3.4 -7.25 -1.7 0.0 -1.7 7.2 -1.7 12.4 3.4 16.35 7.45 17.25 12.65 L15.7 14.2 Q15.15 8.8 11.15 4.65 6.5 0.05 0.0 0.05 -6.5 0.05 -11.1 4.65 M-12.5 15.45 Q-12.45 10.4 -8.8 6.75 -5.15 3.1 0.0 3.1 5.15 3.1 8.85 6.75 12.25 10.2 12.5 14.85 L12.5 15.45 12.5 15.55 10.75 15.55 10.75 15.45 10.75 14.85 Q10.5 10.9 7.6 8.0 4.45 4.85 0.0 4.85 -4.45 4.85 -7.55 8.0 -10.7 11.15 -10.75 15.45 L-10.75 15.55 -12.5 15.55 -12.5 15.45 M-8.2 15.6 Q-8.05 12.5 -5.8 10.25 -3.4 7.85 0.0 7.85 3.4 7.85 5.8 10.25 7.8 12.25 8.15 14.95 L8.2 15.6 8.2 15.7 6.4 15.7 6.4 15.6 6.35 14.95 Q6.0 13.0 4.5 11.55 2.65 9.65 0.0 9.65 -2.65 9.65 -4.5 11.55 -6.25 13.3 -6.35 15.6 L-6.35 15.7 -8.2 15.7 -8.2 15.6" fill="#b7b7b7" fill-rule="evenodd" stroke="none"/>
  </g>
</svg>
