<?xml version="1.0" encoding="UTF-8" standalone="no"?>
<svg xmlns:xlink="http://www.w3.org/1999/xlink" height="64.0px" width="64.0px" xmlns="http://www.w3.org/2000/svg">
  <g transform="matrix(1.0, 0.0, 0.0, 1.0, 32.0, 32.0)">
    <path d="M0.0 -32.0 L32.0 0.0 0.0 32.0 -32.0 0.0 0.0 -32.0 M0.0 -29.8 L-29.8 0.0 -14.25 15.55 -6.35 15.55 -6.35 16.0 Q-6.35 18.65 -4.5 20.5 -2.65 22.35 0.0 22.35 2.65 22.35 4.5 20.5 6.35 18.65 6.35 16.0 L6.35 15.55 14.25 15.55 29.8 0.0 0.0 -29.8" fill="#363636" fill-rule="evenodd" stroke="none"/>
    <path d="M3.15 15.95 Q3.15 17.2 2.2 18.15 L1.9 18.45 Q1.1 19.05 0.0 19.05 -1.3 19.05 -2.2 18.15 -3.15 17.2 -3.15 15.95 -3.15 14.6 -2.2 13.65 -1.3 12.8 0.0 12.8 1.3 12.8 2.2 13.65 L3.0 14.85 3.15 15.95" fill="#363636" fill-rule="evenodd" stroke="none"/>
    <path d="M1.25 10.3 L-0.9 10.3 -1.1 8.45 Q-3.9 8.05 -6.15 6.3 L-10.6 9.5 -11.2 10.15 -11.65 9.95 -11.85 9.5 -11.25 8.9 -7.95 4.5 Q-9.7 2.2 -10.0 -0.6 L-11.85 -0.85 -11.85 -2.9 -10.0 -3.15 Q-9.7 -5.95 -7.95 -8.15 L-11.25 -12.6 -11.85 -13.2 -11.65 -13.7 -11.2 -13.8 -10.6 -13.2 -6.15 -9.95 Q-3.9 -11.7 -1.1 -12.05 L-0.9 -14.0 1.25 -14.0 1.5 -12.05 Q4.3 -11.7 6.55 -9.95 L11.0 -13.2 11.6 -13.8 12.05 -13.7 12.2 -13.2 11.6 -12.6 8.35 -8.15 Q10.05 -5.95 10.45 -3.15 L12.45 -2.9 12.45 -0.85 10.45 -0.6 Q10.1 2.25 8.4 4.5 L11.6 8.9 12.2 9.5 12.05 9.95 11.6 10.15 11.0 9.5 6.65 6.3 Q4.35 8.1 1.5 8.45 L1.25 10.3 M-0.55 9.9 L0.9 9.9 1.45 4.95 2.05 3.05 2.1 3.05 1.6 2.65 1.6 1.85 3.85 -0.45 4.7 -0.45 5.05 0.0 5.05 -0.05 7.05 -0.6 12.05 -1.15 12.05 -2.6 7.05 -3.1 5.1 -3.7 4.7 -3.25 3.85 -3.25 1.6 -5.5 1.6 -6.35 2.05 -6.7 1.45 -8.7 0.9 -13.65 -0.55 -13.65 -1.05 -8.7 -1.7 -6.7 -1.2 -6.35 -1.2 -5.5 -3.55 -3.25 -4.3 -3.25 -4.65 -3.7 -4.7 -3.7 -6.65 -3.1 -11.5 -2.6 -11.5 -1.15 -6.55 -0.6 -4.7 0.0 -4.3 -0.45 -3.55 -0.45 -1.2 1.85 -1.2 2.65 -1.7 3.0 -1.05 4.95 -0.55 9.9 M-1.45 -8.85 L-1.2 -10.75 Q-3.4 -10.5 -5.15 -9.2 L-2.0 -6.95 -1.45 -8.85 M-6.7 -0.25 L-8.8 -0.45 Q-8.5 1.7 -7.25 3.5 L-4.85 0.3 -6.7 -0.25 M-6.7 -3.5 L-4.85 -4.05 -7.25 -7.1 Q-8.5 -5.4 -8.8 -3.25 L-6.7 -3.5 M0.5 0.1 L-0.1 0.1 Q-0.65 0.0 -1.1 -0.4 L-1.65 -1.3 -1.7 -1.7 -1.7 -2.1 -1.65 -2.25 -1.15 -3.15 Q-0.75 -3.55 -0.35 -3.65 L0.05 -3.7 0.5 -3.7 0.65 -3.65 1.65 -3.1 2.1 -2.1 2.1 -1.55 Q2.0 -0.9 1.55 -0.45 1.1 0.0 0.5 0.1 M-0.35 0.9 L0.7 0.9 3.0 -1.4 3.0 -2.35 0.65 -4.65 -0.35 -4.65 -2.55 -2.35 -2.55 -1.3 -0.35 0.9 M0.9 1.35 L-0.5 1.35 -3.0 -1.15 -3.0 -2.55 -0.55 -5.1 0.9 -5.1 3.35 -2.6 3.35 -1.15 0.9 1.35 M-0.15 -1.45 L0.55 -1.45 0.55 -2.15 -0.15 -2.15 -0.15 -1.45 M-1.25 -1.2 Q-1.05 -0.6 -0.4 -0.4 L-0.55 -1.1 -1.25 -1.2 M-1.4 -1.8 L-1.35 -1.6 -0.55 -1.5 -0.55 -2.15 -1.35 -2.05 -1.4 -1.8 M-0.4 -3.3 Q-1.05 -3.05 -1.25 -2.35 L-0.55 -2.5 -0.4 -3.3 M1.8 -8.85 L2.45 -6.95 5.5 -9.2 Q3.75 -10.5 1.65 -10.75 L1.8 -8.85 M1.65 -2.35 Q1.4 -3.05 0.75 -3.3 L0.9 -2.5 1.65 -2.35 M0.45 -0.25 L0.55 -1.05 0.15 -1.05 -0.15 -1.05 0.0 -0.25 0.45 -0.25 M0.75 -0.4 Q1.4 -0.6 1.65 -1.2 L0.9 -1.1 0.75 -0.4 M0.9 -2.15 L0.95 -1.8 0.9 -1.5 1.75 -1.6 1.75 -2.05 0.9 -2.15 M0.0 -3.35 L-0.15 -2.55 0.55 -2.55 0.45 -3.35 0.0 -3.35 M5.3 -4.05 L7.2 -3.5 9.2 -3.25 Q8.9 -5.45 7.6 -7.1 L5.3 -4.05 M7.2 -0.25 L5.25 0.3 7.6 3.5 Q8.9 1.75 9.2 -0.45 L7.2 -0.25 M2.35 3.25 L1.8 5.1 1.65 7.2 Q3.8 6.85 5.6 5.6 L2.35 3.25 M-1.45 5.1 L-2.0 3.25 -5.15 5.6 Q-3.4 6.85 -1.2 7.2 L-1.45 5.1" fill="#363636" fill-rule="evenodd" stroke="none"/>
  </g>
</svg>
