<?xml version="1.0" encoding="UTF-8" standalone="no"?>
<svg xmlns:xlink="http://www.w3.org/1999/xlink" height="64.0px" width="64.0px" xmlns="http://www.w3.org/2000/svg">
  <g transform="matrix(1.0, 0.0, 0.0, 1.0, 32.0, 32.0)">
    <path d="M0.0 -32.0 L32.0 0.0 0.0 32.0 -32.0 0.0 0.0 -32.0 M0.0 -29.8 L-29.8 0.0 -14.35 15.45 -6.3 15.45 -6.3 15.9 Q-6.3 18.55 -4.45 20.4 -2.6 22.25 0.05 22.25 2.7 22.25 4.55 20.4 6.4 18.55 6.4 15.9 L6.4 15.45 14.35 15.45 29.8 0.0 0.0 -29.8" fill="#b7b7b7" fill-rule="evenodd" stroke="none"/>
    <path d="M3.2 15.85 Q3.2 17.1 2.25 18.05 L1.95 18.35 Q1.15 18.95 0.05 18.95 -1.25 18.95 -2.15 18.05 -3.1 17.1 -3.1 15.85 -3.1 14.5 -2.15 13.55 -1.25 12.7 0.05 12.7 1.35 12.7 2.25 13.55 L3.05 14.75 3.2 15.85" fill="#b7b7b7" fill-rule="evenodd" stroke="none"/>
    <path d="M14.35 -2.1 L16.45 13.45 5.95 13.45 Q5.5 12.35 4.55 11.4 2.7 9.55 0.05 9.55 -2.6 9.55 -4.45 11.4 L-5.55 12.95 -5.85 13.45 -16.45 13.45 -14.35 -2.1 14.35 -2.1 M7.3 -11.95 L7.3 -11.35 14.95 -9.35 14.95 -8.75 13.15 -8.75 13.35 -4.9 -13.25 -4.9 -13.1 -8.75 -14.9 -8.75 -14.9 -9.35 -7.3 -11.35 -7.3 -11.95 7.3 -11.95" fill="#b7b7b7" fill-rule="evenodd" stroke="none"/>
  </g>
</svg>
