<?xml version="1.0" encoding="UTF-8" standalone="no"?>
<svg xmlns:xlink="http://www.w3.org/1999/xlink" height="50.4px" width="44.65px" xmlns="http://www.w3.org/2000/svg">
  <g transform="matrix(1.0, 0.0, 0.0, 1.0, 22.3, 24.45)">
    <path d="M20.55 10.85 L22.35 11.95 22.35 14.15 20.55 15.2 18.75 14.15 18.75 11.95 20.55 10.85 M3.5 7.05 L6.35 8.9 7.8 9.6 11.7 7.7 12.45 7.25 12.45 2.95 7.9 0.35 3.5 2.95 3.5 7.05 M3.75 17.25 L3.75 13.45 0.35 11.35 -3.05 13.0 -3.05 16.8 0.1 14.9 3.75 17.25 M-20.55 10.85 L-20.45 10.95 -20.45 10.85 -18.6 11.95 -18.6 14.15 -20.45 15.2 -20.55 15.2 -22.3 14.15 -22.3 11.95 -20.55 10.85 M-3.25 2.95 L-7.6 0.35 -12.25 2.95 -12.25 7.25 -7.7 9.6 -3.25 7.2 -3.25 2.95 M-0.05 -24.45 L0.05 -24.4 0.1 -24.45 18.7 -13.4 18.7 -13.05 18.75 -13.05 18.75 8.15 18.7 8.25 18.7 8.75 13.65 11.7 13.55 17.9 0.4 25.95 -12.8 17.85 -12.8 12.0 -18.5 8.6 -18.5 8.15 -18.7 8.0 -18.7 -12.95 -18.5 -13.05 -18.5 -13.5 -0.05 -24.45" fill="#ffffff" fill-rule="evenodd" stroke="none"/>
    <path d="M-20.55 -20.8 L-20.45 -20.7 -20.45 -20.8 -18.6 -19.7 -18.6 -17.5 -20.45 -16.45 -20.55 -16.45 -22.3 -17.5 -22.3 -19.7 -20.55 -20.8 M20.55 -20.8 L22.35 -19.7 22.35 -17.5 20.55 -16.45 18.75 -17.5 18.75 -19.7 20.55 -20.8" fill="#ffffff" fill-rule="evenodd" stroke="none"/>
  </g>
</svg>
