<?xml version="1.0" encoding="UTF-8" standalone="no"?>
<svg xmlns:xlink="http://www.w3.org/1999/xlink" height="48.6px" width="68.0px" xmlns="http://www.w3.org/2000/svg">
  <g transform="matrix(1.0, 0.0, 0.0, 1.0, 34.0, 24.3)">
    <path d="M32.1 1.45 L27.9 4.65 27.3 4.8 30.8 6.2 25.55 8.15 22.35 8.0 21.15 11.05 13.65 15.1 5.0 16.5 9.7 19.75 0.0 24.3 -5.3 21.8 -5.7 21.65 -9.55 19.75 -4.95 16.5 -13.6 15.1 -21.15 11.05 -22.3 8.0 -25.5 8.15 -30.7 6.2 -27.2 4.8 -27.85 4.65 -32.05 1.45 -27.7 0.85 -30.65 -0.75 -34.0 -5.15 -28.55 -3.9 -31.0 -6.55 -32.25 -11.0 -26.6 -7.45 -27.65 -11.15 -12.25 -1.1 -12.0 -0.9 -10.85 -0.2 -3.0 1.55 -2.35 0.4 -2.25 -1.75 -1.45 -2.65 -1.05 -3.85 0.0 -5.3 1.1 -3.85 1.55 -2.65 2.25 -1.75 2.35 0.4 3.0 1.55 4.45 1.25 4.6 1.2 10.95 -0.2 27.65 -11.05 27.7 -11.15 26.65 -7.45 32.3 -11.0 31.0 -6.55 28.6 -3.9 34.0 -5.15 30.8 -0.85 30.7 -0.75 27.8 0.85 32.1 1.45 M0.0 -24.3 L2.15 -17.75 9.05 -17.75 3.5 -13.7 5.55 -7.15 0.0 -11.2 -5.55 -7.15 -3.4 -13.7 -9.0 -17.75 -2.1 -17.75 0.0 -24.3" fill="#ffffff" fill-rule="evenodd" stroke="none"/>
  </g>
</svg>
