<?xml version="1.0" encoding="UTF-8" standalone="no"?>
<svg xmlns:xlink="http://www.w3.org/1999/xlink" height="64.0px" width="64.0px" xmlns="http://www.w3.org/2000/svg">
  <g transform="matrix(1.0, 0.0, 0.0, 1.0, 32.0, 32.0)">
    <path d="M0.0 -32.0 L32.0 0.0 0.0 32.0 -32.0 0.0 0.0 -32.0 M0.0 -29.8 L-29.8 0.0 -14.35 15.45 -6.3 15.45 -6.3 15.9 Q-6.3 18.55 -4.45 20.4 -2.6 22.25 0.05 22.25 2.7 22.25 4.55 20.4 6.4 18.55 6.4 15.9 L6.4 15.45 14.35 15.45 29.8 0.0 0.0 -29.8" fill="#b7b7b7" fill-rule="evenodd" stroke="none"/>
    <path d="M3.2 15.85 Q3.2 17.1 2.25 18.05 L1.95 18.35 Q1.15 18.95 0.05 18.95 -1.25 18.95 -2.15 18.05 -3.1 17.1 -3.1 15.85 -3.1 14.5 -2.15 13.55 -1.25 12.7 0.05 12.7 1.35 12.7 2.25 13.55 L3.05 14.75 3.2 15.85" fill="#b7b7b7" fill-rule="evenodd" stroke="none"/>
    <path d="M-4.75 11.75 L-4.95 12.05 -5.15 12.3 Q-6.3 13.9 -6.3 15.95 -6.3 18.1 -5.0 19.75 L-8.8 19.75 -8.8 -11.1 -1.05 -3.1 -1.05 9.65 Q-3.3 10.0 -4.75 11.75 M1.15 -3.1 L8.85 -11.1 8.85 19.75 5.1 19.75 Q6.4 18.1 6.4 15.95 6.4 13.85 5.15 12.2 L4.8 11.75 Q3.35 10.0 1.15 9.65 L1.15 -3.1 M-7.7 -13.4 L7.75 -13.4 0.05 -5.4 -7.7 -13.4" fill="#b7b7b7" fill-rule="evenodd" stroke="none"/>
  </g>
</svg>
