<?xml version="1.0" encoding="UTF-8" standalone="no"?>
<svg xmlns:xlink="http://www.w3.org/1999/xlink" height="51.1px" width="54.65px" xmlns="http://www.w3.org/2000/svg">
  <g transform="matrix(1.0, 0.0, 0.0, 1.0, 27.35, 27.55)">
    <path d="M-27.35 19.4 Q-18.65 10.35 -15.5 6.05 -13.75 3.75 -12.9 -0.95 -12.3 -4.25 -12.3 -7.15 L-12.3 -27.55 -6.35 -27.55 -6.35 -18.05 12.5 -18.05 12.5 -12.1 -6.35 -12.1 -6.35 -7.15 Q-6.35 -4.05 -7.05 -0.55 -8.1 5.9 -10.65 9.5 -14.1 14.25 -23.15 23.55 L-27.35 19.4 M23.15 23.4 Q14.3 14.1 10.9 9.5 7.95 5.45 6.95 -2.9 L2.95 -2.9 2.95 20.0 -2.95 20.0 -2.95 -8.85 12.35 -8.85 12.65 -6.1 Q12.9 -2.0 13.75 1.25 14.55 4.55 15.75 6.05 18.7 10.3 27.3 19.2 L23.15 23.4" fill="#ffffff" fill-rule="evenodd" stroke="none"/>
  </g>
</svg>
