<?xml version="1.0" encoding="UTF-8" standalone="no"?>
<svg xmlns:xlink="http://www.w3.org/1999/xlink" height="41.85px" width="56.95px" xmlns="http://www.w3.org/2000/svg">
  <g transform="matrix(1.0, 0.0, 0.0, 1.0, 28.6, 17.1)">
    <path d="M-22.8 -17.1 L-22.8 -3.05 Q-22.8 -1.55 -22.0 -0.8 -21.2 -0.15 -19.6 -0.15 -16.85 -0.15 -14.25 -1.25 -10.5 -3.0 -10.5 -6.2 L-10.6 -17.05 -4.65 -17.05 -4.65 -6.2 Q-4.65 0.3 -10.25 3.2 -13.4 4.95 -19.6 5.65 -22.65 6.05 -25.45 4.15 -28.6 1.9 -28.6 -1.55 L-28.6 -17.1 -22.8 -17.1 M15.95 8.7 L11.55 9.8 Q6.65 11.35 4.65 13.4 2.7 15.35 1.15 20.2 0.3 22.65 0.0 24.75 L-1.2 20.2 Q-2.8 15.35 -4.75 13.4 -6.8 11.35 -11.65 9.8 L-16.0 8.7 -11.65 7.6 Q-6.8 6.05 -4.75 4.1 -2.8 2.05 -1.2 -2.8 L0.0 -7.25 1.15 -2.8 Q2.7 2.05 4.65 4.1 6.65 6.05 11.55 7.6 L15.95 8.7 M7.4 8.7 L5.45 8.35 Q3.3 7.65 2.1 6.5 0.95 5.35 0.3 3.2 L0.0 1.3 -0.5 3.2 Q-1.05 5.35 -2.25 6.5 -3.4 7.65 -5.5 8.35 L-7.45 8.7 -5.5 9.05 Q-3.4 9.75 -2.25 10.8 -1.05 12.05 -0.5 14.2 L0.0 16.15 0.3 14.2 Q0.95 12.05 2.1 10.8 3.3 9.75 5.45 9.05 L7.4 8.7 M28.3 -17.05 L28.3 -11.25 15.1 -11.25 11.25 -10.85 Q10.3 -10.45 10.3 -9.05 L10.3 -7.0 Q10.3 -0.15 19.4 -0.15 L28.35 -0.15 28.35 5.65 19.4 5.65 Q13.0 5.65 8.95 2.75 4.4 -0.55 4.4 -7.0 L4.4 -9.1 Q4.4 -13.2 6.25 -15.15 7.95 -17.05 11.65 -17.05 L28.3 -17.05" fill="#ffffff" fill-rule="evenodd" stroke="none"/>
  </g>
</svg>
